HIERARCHY
ROOT Hips
{
  OFFSET -276.719 75.5941 641.432
  CHANNELS 6 Xposition Yposition Zposition Zrotation Xrotation Yrotation
  JOINT Spine
  {
    OFFSET 0 8 0
    CHANNELS 6 Xposition Yposition Zposition Zrotation Xrotation Yrotation
    JOINT Spine1
    {
      OFFSET 0 8 0
      CHANNELS 6 Xposition Yposition Zposition Zrotation Xrotation Yrotation
      JOINT Spine2
      {
        OFFSET 0 8 0
        CHANNELS 6 Xposition Yposition Zposition Zrotation Xrotation Yrotation
        JOINT Spine3
        {
          OFFSET 0 8 0
          CHANNELS 6 Xposition Yposition Zposition Zrotation Xrotation Yrotation
          JOINT Neck
          {
            OFFSET 0 17 0
            CHANNELS 6 Xposition Yposition Zposition Zrotation Xrotation Yrotation
            JOINT Head
            {
              OFFSET 0 10.8 0
              CHANNELS 6 Xposition Yposition Zposition Zrotation Xrotation Yrotation
              End Site
              {
                OFFSET 0 20.25 0
              }
            }
          }
          JOINT LeftShoulder
          {
            OFFSET 5 17 0
            CHANNELS 6 Xposition Yposition Zposition Zrotation Xrotation Yrotation
            JOINT LeftShoulder2
            {
              OFFSET 6.45 0 0
              CHANNELS 6 Xposition Yposition Zposition Zrotation Xrotation Yrotation
              JOINT LeftArm
              {
                OFFSET 6.45 0 0
                CHANNELS 6 Xposition Yposition Zposition Zrotation Xrotation Yrotation
                JOINT LeftForeArm
                {
                  OFFSET 0 -32.4 -2
                  CHANNELS 6 Xposition Yposition Zposition Zrotation Xrotation Yrotation
                  JOINT LeftHand
                  {
                    OFFSET 0 -25.65 2
                    CHANNELS 6 Xposition Yposition Zposition Zrotation Xrotation Yrotation
                    JOINT LeftHandThumb1
                    {
                      OFFSET -0.5 -1.5 2.65
                      CHANNELS 6 Xposition Yposition Zposition Zrotation Xrotation Yrotation
                      JOINT LeftHandThumb2
                      {
                        OFFSET 0 -3.8 3.7
                        CHANNELS 6 Xposition Yposition Zposition Zrotation Xrotation Yrotation
                        JOINT LeftHandThumb3
                        {
                          OFFSET 0 -3 2.7
                          CHANNELS 6 Xposition Yposition Zposition Zrotation Xrotation Yrotation
                          End Site
                          {
                            OFFSET 0 -2.3 1.8
                          }
                        }
                      }
                    }
                    JOINT LeftHandIndex
                    {
                      OFFSET 0 -1.9 1.6
                      CHANNELS 6 Xposition Yposition Zposition Zrotation Xrotation Yrotation
                      JOINT LeftHandIndex1
                      {
                        OFFSET 0 -8.3 1.9
                        CHANNELS 6 Xposition Yposition Zposition Zrotation Xrotation Yrotation
                        JOINT LeftHandIndex2
                        {
                          OFFSET 0 -4.5 0
                          CHANNELS 6 Xposition Yposition Zposition Zrotation Xrotation Yrotation
                          JOINT LeftHandIndex3
                          {
                            OFFSET 0 -3.4 0
                            CHANNELS 6 Xposition Yposition Zposition Zrotation Xrotation Yrotation
                            End Site
                            {
                              OFFSET 0 -2.6 0
                            }
                          }
                        }
                      }
                    }
                    JOINT LeftHandMiddle
                    {
                      OFFSET -0.25 -2.2 0.4
                      CHANNELS 6 Xposition Yposition Zposition Zrotation Xrotation Yrotation
                      JOINT LeftHandMiddle1
                      {
                        OFFSET 0 -8.3 1
                        CHANNELS 6 Xposition Yposition Zposition Zrotation Xrotation Yrotation
                        JOINT LeftHandMiddle2
                        {
                          OFFSET 0 -4.65 0
                          CHANNELS 6 Xposition Yposition Zposition Zrotation Xrotation Yrotation
                          JOINT LeftHandMiddle3
                          {
                            OFFSET 0 -3.3 0
                            CHANNELS 6 Xposition Yposition Zposition Zrotation Xrotation Yrotation
                            End Site
                            {
                              OFFSET 0 -2.7 0
                            }
                          }
                        }
                      }
                    }
                    JOINT LeftHandRing
                    {
                      OFFSET -0.5 -2.15 -0.8
                      CHANNELS 6 Xposition Yposition Zposition Zrotation Xrotation Yrotation
                      JOINT LeftHandRing1
                      {
                        OFFSET 0 -7.75 -0.2
                        CHANNELS 6 Xposition Yposition Zposition Zrotation Xrotation Yrotation
                        JOINT LeftHandRing2
                        {
                          OFFSET 0 -3.8 0
                          CHANNELS 6 Xposition Yposition Zposition Zrotation Xrotation Yrotation
                          JOINT LeftHandRing3
                          {
                            OFFSET 0 -3.4 0
                            CHANNELS 6 Xposition Yposition Zposition Zrotation Xrotation Yrotation
                            End Site
                            {
                              OFFSET 0 -2.6 0
                            }
                          }
                        }
                      }
                    }
                    JOINT LeftHandPinky
                    {
                      OFFSET -0.75 -1.75 -1.85
                      CHANNELS 6 Xposition Yposition Zposition Zrotation Xrotation Yrotation
                      JOINT LeftHandPinky1
                      {
                        OFFSET 0 -7.15 -1
                        CHANNELS 6 Xposition Yposition Zposition Zrotation Xrotation Yrotation
                        JOINT LeftHandPinky2
                        {
                          OFFSET 0 -3 0
                          CHANNELS 6 Xposition Yposition Zposition Zrotation Xrotation Yrotation
                          JOINT LeftHandPinky3
                          {
                            OFFSET 0 -2.35 0
                            CHANNELS 6 Xposition Yposition Zposition Zrotation Xrotation Yrotation
                            End Site
                            {
                              OFFSET 0 -2.1 0
                            }
                          }
                        }
                      }
                    }
                  }
                }
              }
            }
          }
          JOINT RightShoulder
          {
            OFFSET -5 17 0
            CHANNELS 6 Xposition Yposition Zposition Zrotation Xrotation Yrotation
            JOINT RightShoulder2
            {
              OFFSET -6.45 0 0
              CHANNELS 6 Xposition Yposition Zposition Zrotation Xrotation Yrotation
              JOINT RightArm
              {
                OFFSET -6.45 0 0
                CHANNELS 6 Xposition Yposition Zposition Zrotation Xrotation Yrotation
                JOINT RightForeArm
                {
                  OFFSET 0 -32.4 -2
                  CHANNELS 6 Xposition Yposition Zposition Zrotation Xrotation Yrotation
                  JOINT RightHand
                  {
                    OFFSET 0 -25.65 2
                    CHANNELS 6 Xposition Yposition Zposition Zrotation Xrotation Yrotation
                    JOINT RightHandThumb1
                    {
                      OFFSET 0.5 -1.5 2.65
                      CHANNELS 6 Xposition Yposition Zposition Zrotation Xrotation Yrotation
                      JOINT RightHandThumb2
                      {
                        OFFSET 0 -3.8 3.7
                        CHANNELS 6 Xposition Yposition Zposition Zrotation Xrotation Yrotation
                        JOINT RightHandThumb3
                        {
                          OFFSET 0 -3 2.7
                          CHANNELS 6 Xposition Yposition Zposition Zrotation Xrotation Yrotation
                          End Site
                          {
                            OFFSET 0 -2.3 1.8
                          }
                        }
                      }
                    }
                    JOINT RightHandIndex
                    {
                      OFFSET 0 -1.9 1.6
                      CHANNELS 6 Xposition Yposition Zposition Zrotation Xrotation Yrotation
                      JOINT RightHandIndex1
                      {
                        OFFSET 0 -8.3 1.9
                        CHANNELS 6 Xposition Yposition Zposition Zrotation Xrotation Yrotation
                        JOINT RightHandIndex2
                        {
                          OFFSET 0 -4.5 0
                          CHANNELS 6 Xposition Yposition Zposition Zrotation Xrotation Yrotation
                          JOINT RightHandIndex3
                          {
                            OFFSET 0 -3.4 0
                            CHANNELS 6 Xposition Yposition Zposition Zrotation Xrotation Yrotation
                            End Site
                            {
                              OFFSET 0 -2.6 0
                            }
                          }
                        }
                      }
                    }
                    JOINT RightHandMiddle
                    {
                      OFFSET 0.25 -2.2 0.4
                      CHANNELS 6 Xposition Yposition Zposition Zrotation Xrotation Yrotation
                      JOINT RightHandMiddle1
                      {
                        OFFSET 0 -8.3 1
                        CHANNELS 6 Xposition Yposition Zposition Zrotation Xrotation Yrotation
                        JOINT RightHandMiddle2
                        {
                          OFFSET 0 -4.65 0
                          CHANNELS 6 Xposition Yposition Zposition Zrotation Xrotation Yrotation
                          JOINT RightHandMiddle3
                          {
                            OFFSET 0 -3.3 0
                            CHANNELS 6 Xposition Yposition Zposition Zrotation Xrotation Yrotation
                            End Site
                            {
                              OFFSET 0 -2.7 0
                            }
                          }
                        }
                      }
                    }
                    JOINT RightHandRing
                    {
                      OFFSET 0.5 -2.15 -0.8
                      CHANNELS 6 Xposition Yposition Zposition Zrotation Xrotation Yrotation
                      JOINT RightHandRing1
                      {
                        OFFSET 0 -7.75 -0.2
                        CHANNELS 6 Xposition Yposition Zposition Zrotation Xrotation Yrotation
                        JOINT RightHandRing2
                        {
                          OFFSET 0 -3.8 0
                          CHANNELS 6 Xposition Yposition Zposition Zrotation Xrotation Yrotation
                          JOINT RightHandRing3
                          {
                            OFFSET 0 -3.4 0
                            CHANNELS 6 Xposition Yposition Zposition Zrotation Xrotation Yrotation
                            End Site
                            {
                              OFFSET 0 -2.6 0
                            }
                          }
                        }
                      }
                    }
                    JOINT RightHandPinky
                    {
                      OFFSET 0.75 -1.75 -1.85
                      CHANNELS 6 Xposition Yposition Zposition Zrotation Xrotation Yrotation
                      JOINT RightHandPinky1
                      {
                        OFFSET 0 -7.15 -1
                        CHANNELS 6 Xposition Yposition Zposition Zrotation Xrotation Yrotation
                        JOINT RightHandPinky2
                        {
                          OFFSET 0 -3 0
                          CHANNELS 6 Xposition Yposition Zposition Zrotation Xrotation Yrotation
                          JOINT RightHandPinky3
                          {
                            OFFSET 0 -2.35 0
                            CHANNELS 6 Xposition Yposition Zposition Zrotation Xrotation Yrotation
                            End Site
                            {
                              OFFSET 0 -2.1 0
                            }
                          }
                        }
                      }
                    }
                  }
                }
              }
            }
          }
        }
      }
    }
  }
  JOINT LeftUpLeg
  {
    OFFSET 8 0 0
    CHANNELS 6 Xposition Yposition Zposition Zrotation Xrotation Yrotation
    JOINT LeftLeg
    {
      OFFSET 0 -45 -1
      CHANNELS 6 Xposition Yposition Zposition Zrotation Xrotation Yrotation
      JOINT LeftFoot
      {
        OFFSET 0 -41 -2
        CHANNELS 6 Xposition Yposition Zposition Zrotation Xrotation Yrotation
        JOINT LeftToeBase
        {
          OFFSET 0 -7.5 12.5
          CHANNELS 6 Xposition Yposition Zposition Zrotation Xrotation Yrotation
          JOINT LeftFootToe
          {
            OFFSET 0 0 4
            CHANNELS 6 Xposition Yposition Zposition Zrotation Xrotation Yrotation
            End Site
            {
              OFFSET 0 0 0
            }
          }
        }
      }
    }
  }
  JOINT RightUpLeg
  {
    OFFSET -8 0 0
    CHANNELS 6 Xposition Yposition Zposition Zrotation Xrotation Yrotation
    JOINT RightLeg
    {
      OFFSET 0 -45 -1
      CHANNELS 6 Xposition Yposition Zposition Zrotation Xrotation Yrotation
      JOINT RightFoot
      {
        OFFSET 0 -41 -2
        CHANNELS 6 Xposition Yposition Zposition Zrotation Xrotation Yrotation
        JOINT RightToeBase
        {
          OFFSET 0 -7.5 12.5
          CHANNELS 6 Xposition Yposition Zposition Zrotation Xrotation Yrotation
          JOINT RightFootToe
          {
            OFFSET 0 0 4
            CHANNELS 6 Xposition Yposition Zposition Zrotation Xrotation Yrotation
            End Site
            {
              OFFSET 0 0 0
            }
          }
        }
      }
    }
  }
}
MOTION
Frames:	3
Frame Time:	0.0111111
-276.352 74.2653 640.009 0.966415 10.9976 -178.896 0 8 0 0.0766118 8.80201 -15.7714 -2.84217e-14 8 1.13687e-13 0.288663 3.04655 0.943281 -2.84217e-14 8 2.27374e-13 0.15058 1.52298 0.473485 5.68434e-14 8 0 0.150523 1.52239 0.473299 -5.68434e-14 17 -1.13687e-13 3.59144 9.81645 -7.97647 0 10.8 1.13687e-13 8.19396 6.79924 -18.0875 5 17 -1.13687e-13 -1.02936 3.53599 0.0464692 6.45 -2.84217e-14 -1.13687e-13 0.178475 1.18679 3.16353 6.45 1.42109e-14 0 41.7157 -23.0577 -7.18281 1.13687e-13 -32.4 -2 -62.5237 -70.4915 -70.3225 8.52651e-14 -25.65 2 69.2452 5.16011 -44.1062 -0.5 -1.5 2.65 -21.3378 -43.6313 -14.0388 0 -3.8 3.7 -0.0269584 46.4078 -0.00225428 0 -3 2.7 -0.00717535 -0.190864 -0.000976213 0 -1.9 1.6 -4.41391e-32 -1.59028e-15 -1.59028e-15 -5.68434e-14 -8.3 1.9 -3.47463 11.7605 0.653562 5.68434e-14 -4.5 0 -26.1258 59.962 -34.6461 5.68434e-14 -3.4 0 -71.4111 -0.00630015 0.00292915 -0.25 -2.2 0.4 -4.41391e-32 -1.59028e-15 -1.59028e-15 5.68434e-14 -8.3 1 -11.2703 17.8948 2.52662 0 -4.65 0 -21.8031 33.4998 -11.5999 5.68434e-14 -3.3 0 -41.3118 -0.00507656 -0.00133185 -0.5 -2.15 -0.8 -4.41391e-32 -1.59028e-15 -1.59028e-15 0 -7.75 -0.2 -53.2597 13.2084 9.94342 0 -3.8 1.13687e-13 -28.2794 20.2629 -2.26534 0 -3.4 0 -28.6308 -0.0150109 -0.015237 -0.75 -1.75 -1.85 -4.41391e-32 -1.59028e-15 -1.59028e-15 0 -7.15 -1 -78.7859 6.15128 14.0068 2.84217e-14 -3 -5.68434e-14 -28.4323 15.4241 -1.02334 1.7053e-13 -2.35 0 -25.6296 -0.0294874 -0.024543 -5 17 0 12.9059 5.34493 7.18169 -6.45 1.42109e-14 0 -2.22102 -0.723105 -2.7956 -6.45 0 0 -39.6759 0.073046 11.2208 0 -32.4 -2 55.7135 -57.463 21.3508 0 -25.65 2 -0.348856 17.2314 -31.2482 0.5 -1.5 2.65 16.6637 -5.13164 7.74407 0 -3.8 3.7 -3.37509 4.27776 -4.35871 -5.68434e-14 -3 2.7 0.156749 28.9709 -0.143111 2.84217e-14 -1.9 1.6 7.95139e-15 6.36111e-15 -1.59028e-15 2.84217e-14 -8.3 1.9 9.46031 23.6745 -2.32394 2.84217e-14 -4.5 1.13687e-13 -0.00135057 0.00487687 0.00258564 -2.84217e-14 -3.4 1.13687e-13 -0.000229068 0.00825643 0.0121314 0.25 -2.2 0.4 7.95139e-15 6.36111e-15 -1.59028e-15 -5.68434e-14 -8.3 1 32.5945 28.422 -10.9193 1.42109e-14 -4.65 -1.13687e-13 0.0384119 3.33731 2.72303 -1.42109e-14 -3.3 0 63.641 0.00155481 0.00202794 0.5 -2.15 -0.8 7.95139e-15 6.36111e-15 -1.59028e-15 0 -7.75 -0.2 52.1347 21.9506 -15.4441 1.42109e-14 -3.8 1.13687e-13 0.321426 8.208 6.25872 0 -3.4 1.13687e-13 58.08 -0.00355171 -0.00834109 0.75 -1.75 -1.85 7.95139e-15 6.36111e-15 -1.59028e-15 2.84217e-14 -7.15 -1 84.7347 5.56759 -16.6458 0 -3 -2.27374e-13 2.78298 13.0344 5.57339 5.68434e-14 -2.35 -1.13687e-13 33.8592 -0.00552779 -0.00911184 8 2.84217e-14 0 11.6264 -41.5142 178.908 0 -45 -1 12.4322 -35.5326 171.672 -2.84217e-14 -41 -2 -5.7392 4.47928 24.5321 0 -7.5 12.5 -1.98785e-16 -1.59028e-15 1.59028e-15 -5.68434e-14 -2.84217e-14 4 3.65053 -7.65263 39.6354 -8 0 0 0.086948 -42.7974 178.948 0 -45 -1 -32.9663 -72.1235 165.9 0 -41 -2 -18.2635 3.87795 7.59798 -1.13687e-13 -7.5 12.5 0.000593249 -21.3469 0.00533001 0 -1.38778e-17 4 4.30295 21.8834 25.3484 
-276.253 74.2827 640.138 0.92452 11.1177 -178.87 -5.68434e-14 8 0 0.110225 8.85683 -15.7824 2.84217e-14 8 1.13687e-13 0.270486 3.05676 0.97398 2.84217e-14 8 1.13687e-13 0.141719 1.52811 0.488717 -2.84217e-14 8 0 0.141665 1.5275 0.488522 -2.84217e-14 17 -1.13687e-13 3.67064 9.82432 -7.99004 5.68434e-14 10.8 1.13687e-13 8.17976 6.8494 -18.1106 5 17 -2.27374e-13 -0.933807 3.55972 0.11035 6.45 -2.84217e-14 -2.27374e-13 0.17788 1.19754 3.16355 6.45 0 0 42.1689 -23.5229 -7.54724 2.84217e-14 -32.4 -2 -60.0528 -70.2121 -67.6902 2.84217e-14 -25.65 2 67.8156 5.62636 -42.9273 -0.5 -1.5 2.65 -20.8866 -43.9769 -14.2179 5.68434e-14 -3.8 3.7 -0.0269733 46.1451 -0.0022435 0 -3 2.7 -0.00717535 -0.190864 -0.000976213 5.68434e-14 -1.9 1.6 4.41391e-32 -1.59028e-15 1.59028e-15 -1.13687e-13 -8.3 1.9 -3.24245 11.9113 0.624238 5.68434e-14 -4.5 0 -26.0638 59.962 -34.6461 0 -3.4 -1.13687e-13 -71.2809 -0.00630015 0.00292915 -0.25 -2.2 0.4 4.41391e-32 -1.59028e-15 1.59028e-15 0 -8.3 1 -11.3539 18.2514 2.62496 0 -4.65 5.68434e-14 -21.7359 33.494 -11.5991 7.10543e-14 -3.3 1.13687e-13 -41.2573 -0.00507656 -0.00481017 -0.5 -2.15 -0.8 4.41391e-32 -1.59028e-15 1.59028e-15 -5.68434e-14 -7.75 -0.2 -54.6211 13.1046 10.3025 -2.84217e-14 -3.8 0 -27.2546 20.2304 -2.27835 -2.84217e-14 -3.4 0 -28.0156 -0.0255524 -0.0332761 -0.75 -1.75 -1.85 4.41391e-32 -1.59028e-15 1.59028e-15 1.13687e-13 -7.15 -1 -80.0095 5.68481 14.1789 2.84217e-14 -3 -5.68434e-14 -27.0035 15.4022 -1.04244 0 -2.35 -1.13687e-13 -24.7756 -0.0294874 -0.0405206 -5 17 0 12.9756 5.32348 7.18143 -6.45 1.42109e-14 0 -2.22087 -0.723113 -2.78328 -6.45 2.13163e-14 0 -39.6817 0.204693 11.2985 0 -32.4 -2 55.8772 -57.5611 21.6471 0 -25.65 2 -0.247717 17.2118 -31.3956 0.5 -1.5 2.65 16.7952 -4.86365 7.7856 0 -3.8 3.7 -3.33663 4.01123 -4.38371 -2.84217e-14 -3 2.7 0.157145 29.1095 -0.143303 2.84217e-14 -1.9 1.6 -4.77083e-15 3.18055e-15 -4.77083e-15 2.84217e-14 -8.3 1.9 9.52172 23.7347 -2.34416 2.84217e-14 -4.5 0 -0.0131301 0.00197734 0.00258564 2.84217e-14 -3.4 1.13687e-13 -0.000229068 0.00825643 0.0121314 0.25 -2.2 0.4 -4.77083e-15 3.18055e-15 -4.77083e-15 -5.68434e-14 -8.3 1 32.7614 28.4749 -10.9987 -2.84217e-14 -4.65 -1.13687e-13 -0.0613489 3.33731 2.72303 -2.84217e-14 -3.3 -1.13687e-13 63.4816 0.00155481 0.00202794 0.5 -2.15 -0.8 -4.77083e-15 3.18055e-15 -4.77083e-15 -2.84217e-14 -7.75 -0.2 52.2098 21.9811 -15.4846 4.26326e-14 -3.8 1.13687e-13 0.320493 8.2079 6.26526 0 -3.4 -1.13687e-13 58.1431 -0.00355171 -0.00834109 0.75 -1.75 -1.85 -4.77083e-15 3.18055e-15 -4.77083e-15 0 -7.15 -1 84.798 5.55179 -16.6736 2.84217e-14 -3 -1.13687e-13 2.76833 13.0367 5.57591 0 -2.35 -1.13687e-13 33.8567 -0.00552779 -0.00911184 8 2.84217e-14 -1.13687e-13 11.5431 -41.3874 178.863 0 -45 -1 12.444 -35.5696 171.666 2.84217e-14 -41 -2 -5.72036 4.43812 24.5306 -5.68434e-14 -7.5 12.5 -5.96354e-16 3.18055e-15 -0 -5.68434e-14 -4.26326e-14 4 3.79473 -7.47229 40.0718 -8 0 -1.13687e-13 0.0738346 -42.6651 178.964 -5.68434e-14 -45 -1 -32.9878 -71.9274 165.862 0 -41 -2 -18.3249 4.04612 7.63312 0 -7.5 12.5 0.000576308 -21.1771 0.00532387 0 0 4 4.23312 21.72 25.3332 
-276.141 74.2969 640.258 0.877416 11.2309 -178.833 0 8 -1.13687e-13 0.141216 8.91005 -15.799 0 8 1.13687e-13 0.251121 3.06812 0.999146 -2.84217e-14 8 1.13687e-13 0.13223 1.53382 0.501178 2.84217e-14 8 0 0.132179 1.53321 0.500975 -5.68434e-14 17 -1.13687e-13 3.74814 9.83158 -8.00067 0 10.8 1.13687e-13 8.16914 6.88694 -18.1279 5 17 -1.13687e-13 -0.844892 3.58528 0.172871 6.45 -1.42109e-14 -1.13687e-13 0.177271 1.20856 3.16356 6.45 1.42109e-14 0 42.6434 -24.0587 -7.94373 2.84217e-14 -32.4 -2 -57.4828 -69.8846 -64.9514 2.84217e-14 -25.65 2 66.2379 6.05781 -41.8043 -0.5 -1.5 2.65 -20.2595 -44.3181 -14.2461 0 -3.8 3.7 -0.0269918 45.8154 -0.00223018 -5.68434e-14 -3 2.7 -0.00717535 -0.190864 -0.000976213 0 -1.9 1.6 -6.36111e-15 1.59028e-15 -1.59028e-15 -1.13687e-13 -8.3 1.9 -3.2754 12.1855 0.631032 1.13687e-13 -4.5 5.68434e-14 -25.8414 59.962 -34.6461 8.52651e-14 -3.4 0 -70.8237 -0.00249106 0.00189893 -0.25 -2.2 0.4 -6.36111e-15 1.59028e-15 -1.59028e-15 5.68434e-14 -8.3 1 -11.8207 18.6401 2.79977 0 -4.65 0 -21.3868 33.4786 -11.597 7.10543e-14 -3.3 0 -40.9804 -0.00507656 -0.0166495 -0.5 -2.15 -0.8 -6.36111e-15 1.59028e-15 -1.59028e-15 0 -7.75 -0.2 -56.3518 12.9052 10.7277 0 -3.8 0 -25.9143 20.1977 -2.29883 -2.84217e-14 -3.4 0 -27.2129 -0.0338525 -0.0543123 -0.75 -1.75 -1.85 -6.36111e-15 1.59028e-15 -1.59028e-15 0 -7.15 -1 -81.2867 5.16804 14.3562 2.84217e-14 -3 -1.13687e-13 -25.2197 15.3972 -1.06303 1.13687e-13 -2.35 -1.13687e-13 -23.7073 -0.0294874 -0.0517506 -5 17 0 13.0374 5.29425 7.18109 -6.45 1.42109e-14 0 -2.22077 -0.724986 -2.76894 -6.45 0 -1.13687e-13 -39.6676 0.346318 11.38 -5.68434e-14 -32.4 -2 56.0138 -57.6836 21.9335 -5.68434e-14 -25.65 2 -0.112454 17.1392 -31.4897 0.5 -1.5 2.65 16.8802 -4.60398 7.81729 0 -3.8 3.7 -3.30107 3.75511 -4.40895 0 -3 2.7 0.157522 29.2409 -0.143487 5.68434e-14 -1.9 1.6 -1.59028e-15 3.18055e-15 1.59028e-15 0 -8.3 1.9 9.59242 23.8036 -2.36742 0 -4.5 -1.13687e-13 -0.0480571 -0.00661726 0.00258564 0 -3.4 1.13687e-13 -0.000229068 0.00825643 0.0121314 0.25 -2.2 0.4 -1.59028e-15 3.18055e-15 1.59028e-15 -8.52651e-14 -8.3 1 32.9086 28.5272 -11.0688 -1.42109e-14 -4.65 0 -0.106594 3.33731 2.72303 -1.42109e-14 -3.3 0 63.4201 0.00155481 0.00202794 0.5 -2.15 -0.8 -1.59028e-15 3.18055e-15 1.59028e-15 0 -7.75 -0.2 52.2511 22.0103 -15.5115 1.42109e-14 -3.8 -1.13687e-13 0.317902 8.21191 6.28018 0 -3.4 1.13687e-13 58.2879 -0.00355171 -0.00834109 0.75 -1.75 -1.85 -1.59028e-15 3.18055e-15 1.59028e-15 0 -7.15 -1 84.8402 5.54155 -16.6921 1.42109e-14 -3 -1.13687e-13 2.78119 13.0728 5.61483 0 -2.35 1.13687e-13 33.9835 -0.00552779 -0.00911184 8 2.84217e-14 -2.27374e-13 11.4676 -41.2588 178.821 0 -45 -1 12.4456 -35.5703 171.642 2.84217e-14 -41 -2 -5.71205 4.41996 24.53 0 -7.5 12.5 -7.95139e-16 1.59028e-15 -4.77083e-15 -1.13687e-13 -4.26326e-14 4 3.94376 -7.27034 40.4568 -8 0 -1.13687e-13 0.0608452 -42.5417 178.978 0 -45 -1 -33.0214 -71.7586 165.804 5.68434e-14 -41 -2 -18.3815 4.18743 7.66409 0 -7.5 12.5 0.000562231 -21.0357 0.0053188 -1.13687e-13 0 4 4.2113 21.5867 25.3058 
